<svg width="343" height="214" viewBox="0 0 343 214" fill="none" xmlns="http://www.w3.org/2000/svg">
<g clip-path="url(#clip0_19_1012)">
<path opacity="0.1" d="M343 147.935C343.024 139.294 340.967 130.774 337.001 123.094C333.035 115.414 327.277 108.798 320.213 103.806C320.409 101.939 320.509 100.064 320.513 98.1874C320.513 68.5105 296.755 44.4524 267.444 44.4524C258.418 44.4427 249.544 46.7673 241.686 51.1996C220.941 37.5735 193.858 29.3266 164.229 29.3266C116.02 29.3266 74.5515 51.1636 56.1542 82.4749C55.1318 82.415 54.1034 82.3821 53.066 82.3821C23.7611 82.3821 -0.00300646 106.44 -0.00300646 136.117C-0.0238182 146.602 3.01077 156.866 8.7309 165.659V165.659C8.7309 192.361 33.9732 214.003 65.098 214.003H290.902C315.35 214.003 335.169 197.009 335.169 176.043C340.311 167.568 343.02 157.844 343 147.935Z" fill="#6C63FF"/>
<path d="M248.429 49.1311C246.168 50.083 243.902 51.0379 241.797 52.2952C240.841 52.8639 239.923 53.4925 238.94 54.0104C237.881 54.5732 236.757 54.9982 235.642 55.4532C232.564 56.7084 229.575 58.1705 226.695 59.8296C226.944 56.6117 226.473 53.1154 224.545 50.6069C224.262 50.2351 223.947 49.8886 223.604 49.5711C222.239 48.3079 220.306 47.9816 218.965 46.8771C219.781 45.4462 221.592 44.1471 222.824 43.0545C224.155 41.879 225.537 40.7645 226.968 39.7108C229.828 37.6018 232.874 35.7553 236.067 34.1939C238.094 33.2031 240.211 32.317 242.448 32.0147C242.729 31.9513 243.024 31.9775 243.29 32.0895C243.638 32.2811 243.764 32.7122 243.848 33.0983C244.265 35.0291 244.477 37.0107 244.825 38.9564C244.996 39.9564 245.227 40.9451 245.518 41.9169C245.892 43.0663 246.323 44.1963 246.81 45.3025C247.352 46.5777 247.891 47.8539 248.429 49.1311Z" fill="#FBBEBE"/>
<path d="M184.264 103.695C184.263 107.669 183.005 111.541 180.669 114.758C178.334 117.976 175.04 120.375 171.258 121.612C167.476 122.85 163.399 122.863 159.609 121.65C155.818 120.437 152.509 118.06 150.152 114.858C147.768 111.623 146.483 107.712 146.486 103.695C146.486 98.6936 148.476 93.8969 152.018 90.3602C155.56 86.8236 160.365 84.8367 165.375 84.8367C170.384 84.8367 175.189 86.8236 178.731 90.3602C182.274 93.8969 184.264 98.6936 184.264 103.695Z" fill="#BE6F72"/>
<path d="M158.608 120.315C159.618 122.054 160.637 123.808 161.285 125.703C161.933 127.598 162.184 129.696 161.651 131.633C168.085 128.25 175.743 128.523 182.824 126.81C183.014 126.789 183.188 126.697 183.313 126.553C183.356 126.455 183.378 126.349 183.378 126.242C183.378 126.135 183.356 126.029 183.313 125.93C181.831 120.453 181.26 114.77 181.625 109.107L177.928 111.29C176.31 112.288 174.633 113.187 172.906 113.984C170.463 115.052 167.869 115.699 165.318 116.447C163.297 117.046 159.285 117.821 158.014 119.584C158.243 119.801 158.443 120.046 158.608 120.315Z" fill="#BE6F72"/>
<path d="M148.201 94.9544C146.971 95.4484 145.526 96.0171 144.396 95.3256C143.565 94.8138 143.223 93.7511 143.274 92.7782C143.325 91.8054 143.697 90.8834 143.991 89.9554C144.591 88.0486 144.915 86.064 145.583 84.1661C146.252 82.2683 147.343 80.4393 149.076 79.4365C152.266 77.5926 156.395 79.1162 159.936 78.0955C161.435 77.6674 162.739 76.8053 164.133 76.1288C165.527 75.4523 167.096 74.9314 168.601 75.2936C170.364 75.7037 171.665 77.1855 173.308 77.9398C175.107 78.766 177.26 78.7091 178.897 79.8137C180.057 80.598 180.789 81.8642 181.439 83.1065C183.521 87.0989 185.164 91.3041 186.341 95.6489C186.812 97.2047 187.081 98.8143 187.142 100.438C187.157 102.516 186.593 104.551 186.036 106.557L185.136 109.73C184.803 110.927 184.461 112.125 183.832 113.208C183.202 114.292 182.231 115.205 181.028 115.519C179.529 115.905 177.784 115.157 177.131 113.756C176.729 112.888 176.747 111.894 176.726 110.939C176.693 109.069 176.492 107.206 176.126 105.372C175.94 104.453 175.692 103.498 175.065 102.803C174.255 101.905 172.966 101.606 171.767 101.585C170.364 101.567 168.826 101.947 168.007 103.082C167.35 103.998 167.236 105.285 166.364 106C165.976 106.297 165.515 106.484 165.03 106.542C164.04 106.665 163.037 106.453 162.182 105.941C161.327 105.428 160.669 104.643 160.314 103.713C160.038 102.923 159.903 101.941 159.153 101.57C158.763 101.375 158.299 101.411 157.882 101.286C156.605 100.899 156.269 99.2829 156.152 97.9569C156.017 96.4033 156.536 93.335 154.602 93.2302C152.518 93.1165 150.116 94.3168 148.201 94.9544Z" fill="#3F3D56"/>
<path d="M152.731 115.397C152.065 115.717 151.337 116.091 151.076 116.78C150.974 117.049 150.956 117.345 150.863 117.621C150.44 118.839 148.791 119.078 147.94 120.048C147.556 120.539 147.297 121.115 147.187 121.728C146.618 124.144 146.802 126.675 147.715 128.984C147.979 129.715 148.387 130.387 148.914 130.959C150.437 132.51 153.064 132.48 154.962 131.423C156.86 130.367 158.17 128.514 159.282 126.634C159.872 125.688 160.365 124.685 160.754 123.64C161.096 122.578 161.34 121.487 161.483 120.381C162.148 116.067 163.018 111.284 162.718 106.91C161.819 106.853 160.101 106.79 159.306 107.353C158.311 108.06 158.586 109.485 158.227 110.517C157.375 113.002 154.905 114.313 152.731 115.397Z" fill="#3F3D56"/>
<path d="M153.51 115.968C152.386 116.037 150.371 114.795 149.244 114.858C148.477 113.521 147.799 112.135 147.214 110.709C147.814 109.85 148.779 109.64 150.239 110.709C151.412 111.532 153.031 114.379 153.51 115.968Z" fill="#3F3D56"/>
<path d="M170.46 68.6722C169.239 69.3158 168.484 69.3457 167.881 69.217C167.278 69.0883 166.082 69.687 166.082 69.687C155.513 73.297 155.097 75.0003 155.097 75.0003L167.332 70.6868C169.686 69.657 169.731 70.0192 169.731 70.0192C171.53 71.7075 173.821 70.564 173.821 70.564C173.821 70.564 176.99 69.0673 176.057 67.6275C175.125 66.1877 171.683 68.0406 170.46 68.6722ZM175.557 68.4028C175.557 68.4028 174.657 70.7975 171.422 70.4084C171.422 70.4084 169.833 70.1749 170.505 68.9925C170.505 68.9925 173.803 67.6095 174.675 67.7083C175.548 67.8071 175.548 68.4148 175.548 68.4148L175.557 68.4028Z" fill="#E8E8F0"/>
<path opacity="0.1" d="M170.46 68.6722C169.239 69.3158 168.484 69.3457 167.881 69.217C167.278 69.0883 166.082 69.687 166.082 69.687C155.513 73.297 155.097 75.0003 155.097 75.0003L167.332 70.6868C169.686 69.657 169.731 70.0192 169.731 70.0192C171.53 71.7075 173.821 70.564 173.821 70.564C173.821 70.564 176.99 69.0673 176.057 67.6275C175.125 66.1877 171.683 68.0406 170.46 68.6722ZM175.557 68.4028C175.557 68.4028 174.657 70.7975 171.422 70.4084C171.422 70.4084 169.833 70.1749 170.505 68.9925C170.505 68.9925 173.803 67.6095 174.675 67.7083C175.548 67.8071 175.548 68.4148 175.548 68.4148L175.557 68.4028Z" fill="black"/>
<path d="M171.131 61.9968C169.302 62.0567 168.922 63.4217 168.922 63.4217C168.555 63.858 168.341 64.401 168.31 64.9693C168.279 65.5376 168.434 66.1006 168.751 66.5738L165.503 69.7977C164.888 70.0347 164.359 70.4522 163.986 70.9951C163.986 70.9951 156.857 77.2813 156.961 77.853C156.961 77.853 158.125 78.4517 165.503 71.7374L167.44 70.0252C167.44 70.0252 167.869 66.8252 170.894 66.2176C170.894 66.2176 171.194 66.3493 171.353 65.6368C171.523 65.2952 171.749 64.9845 172.022 64.7179C172.423 64.3467 172.96 61.934 171.131 61.9968ZM171.644 64.1611C171.644 64.1611 170.663 66.6875 169.266 65.9571C167.869 65.2267 169.227 63.5414 169.227 63.5414C171.65 61.1886 171.644 64.1611 171.644 64.1611Z" fill="#E8E8F0"/>
<path opacity="0.1" d="M165.566 71.0549C165.78 71.0549 165.953 70.882 165.953 70.6688C165.953 70.4555 165.78 70.2826 165.566 70.2826C165.353 70.2826 165.18 70.4555 165.18 70.6688C165.18 70.882 165.353 71.0549 165.566 71.0549Z" fill="black"/>
<path d="M199.402 58.4586C198.273 57.865 197.101 57.3567 195.897 56.9379C194.295 56.4846 192.65 56.2036 190.989 56.0998C185.74 55.6009 180.475 55.3115 175.194 55.2317C174.261 55.2317 173.308 55.2107 172.423 55.531C171.633 55.8337 170.918 56.3023 170.325 56.905C169.297 57.8856 168.481 59.0651 167.926 60.3714C167.748 60.6987 167.695 61.0795 167.776 61.4431C167.896 61.7903 168.376 62.0208 168.649 61.7753C167.951 62.3369 167.438 63.0951 167.177 63.9513C166.916 64.8075 166.919 65.7223 167.185 66.5768C166.769 66.7941 166.416 67.1149 166.161 67.5081C165.905 67.9014 165.755 68.3539 165.725 68.8219C167.905 69.2248 170.149 69.1161 172.28 68.5045C171.644 68.3429 170.987 68.9386 170.948 69.5912C170.953 69.919 171.047 70.2393 171.223 70.5166C171.398 70.794 171.646 71.0176 171.941 71.1627C172.535 71.4437 173.191 71.5733 173.848 71.5399C176.387 71.5399 178.858 70.6808 181.391 70.57C183.328 70.4832 185.325 70.8334 187.175 70.2707C189.322 69.6061 191.237 67.7233 193.45 68.1154C195.216 68.4297 196.367 70.0671 197.519 71.4381C199.36 73.6263 201.635 75.3984 203.893 77.1556C205.632 78.5086 207.449 79.8975 209.605 80.3555C210.25 80.5311 210.934 80.4986 211.56 80.2627C212.082 79.9834 212.521 79.5701 212.831 79.0654C215.155 75.7726 215.158 71.6267 215.023 67.7682C214.954 65.7955 214.522 65.5291 212.693 64.7119C210.57 63.76 208.455 62.7851 206.349 61.7873C204.022 60.7017 201.706 59.5921 199.402 58.4586Z" fill="#FBBEBE"/>
<path d="M223.703 65.8464C223.345 66.0596 222.968 66.2371 222.575 66.3762C221.919 66.5319 221.25 66.2535 220.611 66.038C217.913 65.1399 214.915 65.3525 212.306 64.2419C213.162 69.1439 212.042 74.1847 209.191 78.2661C208.651 79.0324 207.941 79.8167 207.005 79.8766C207.422 81.1548 208.705 81.9271 209.923 82.5018C211.867 83.4204 213.9 84.1366 215.991 84.6391C216.591 84.7798 217.322 84.8487 217.67 84.3398C217.88 84.0404 217.97 83.5286 218.339 83.5465C218.902 84.1452 218.716 85.3725 219.496 85.6419C219.739 85.7038 219.994 85.7038 220.237 85.6419L221.976 85.3426C222.497 85.2975 223 85.1248 223.439 84.8397C223.714 84.6013 223.941 84.3128 224.107 83.9896C226.056 80.6758 226.806 76.8413 227.106 73.0546C227.252 71.1747 227.435 69.1811 227.306 67.2952C227.187 65.6788 225.112 65.1908 223.703 65.8464Z" fill="#E8E8F0"/>
<path opacity="0.1" d="M223.703 65.8464C223.345 66.0596 222.968 66.2371 222.575 66.3762C221.919 66.5319 221.25 66.2535 220.611 66.038C217.913 65.1399 214.915 65.3525 212.306 64.2419C213.162 69.1439 212.042 74.1847 209.191 78.2661C208.651 79.0324 207.941 79.8167 207.005 79.8766C207.422 81.1548 208.705 81.9271 209.923 82.5018C211.867 83.4204 213.9 84.1366 215.991 84.6391C216.591 84.7798 217.322 84.8487 217.67 84.3398C217.88 84.0404 217.97 83.5286 218.339 83.5465C218.902 84.1452 218.716 85.3725 219.496 85.6419C219.739 85.7038 219.994 85.7038 220.237 85.6419L221.976 85.3426C222.497 85.2975 223 85.1248 223.439 84.8397C223.714 84.6013 223.941 84.3128 224.107 83.9896C226.056 80.6758 226.806 76.8413 227.106 73.0546C227.252 71.1747 227.435 69.1811 227.306 67.2952C227.187 65.6788 225.112 65.1908 223.703 65.8464Z" fill="black"/>
<path d="M123.192 162.944C122.338 161.849 121.459 160.687 120.194 160.109C119.465 159.816 118.698 159.628 117.915 159.553C113.697 158.954 109.469 158.331 105.212 158.215C103.82 158.176 102.327 158.215 101.194 159.026C99.8958 159.951 99.3951 161.654 99.3231 163.243C99.2456 165.136 99.622 167.02 100.421 168.738C101.22 170.456 102.418 171.959 103.916 173.122C106.465 175.062 109.685 175.873 112.827 176.513C114.479 176.852 116.14 177.154 117.807 177.411C119.474 177.669 121.171 177.872 122.781 178.387C126.223 179.489 129.261 181.979 132.871 182.186C133.04 182.212 133.214 182.183 133.365 182.102C133.524 181.974 133.63 181.793 133.665 181.593C134.46 178.794 137.215 172.092 133.665 170.134C131.809 169.114 129.749 169.069 127.932 167.773C126.115 166.476 124.571 164.713 123.192 162.944Z" fill="#BE6F72"/>
<path d="M92.8828 181.524C90.5472 179.495 87.3241 178.42 85.6271 175.837C84.8805 174.699 84.5027 173.364 84.1279 172.053L83.0246 168.096C82.9396 167.853 82.9009 167.596 82.9106 167.338C82.9946 166.512 83.969 166.12 84.7905 165.991C88.9881 165.339 93.3595 167.027 96.5017 169.883C99.6439 172.739 101.662 176.678 102.846 180.761C102.929 180.969 102.942 181.198 102.882 181.414C102.779 181.605 102.617 181.759 102.42 181.851C100.903 182.749 98.8643 184.057 97.0924 184.332C95.3204 184.608 94.1451 182.608 92.8828 181.524Z" fill="#BE6F72"/>
<path d="M195.357 164.462L207.65 169.374C208.816 169.84 209.776 170.708 210.355 171.822C210.933 172.935 211.091 174.219 210.801 175.439L201.653 213.853H178.783L182.764 170.149C182.764 170.149 191.459 162.965 195.357 164.462Z" fill="#3F3D56"/>
<path d="M207.23 159.852C207.002 160.349 206.666 160.84 206.717 161.382C206.747 161.705 206.915 162.01 206.891 162.33C206.843 162.959 206.115 163.309 205.485 163.315C204.856 163.321 204.223 163.118 203.602 163.226C202.583 163.399 201.893 164.336 201.012 164.878C199.783 165.632 198.247 165.587 196.814 165.716C193.816 165.985 190.98 167.108 188.266 168.386C186.422 169.254 184.464 170.368 183.769 172.278C182.77 174.972 184.707 177.809 185.136 180.659C185.251 181.619 185.279 182.586 185.22 183.551C184.905 193.615 184.362 203.795 183.787 213.847L73.8829 213.976L79.2948 204.508C84.5717 195.273 89.9895 185.865 97.9499 178.803C99.1307 177.739 100.457 176.848 101.89 176.157L108.273 181.845C108.784 182.352 109.377 182.77 110.027 183.081C111.226 183.569 112.569 183.29 113.856 183.332C116.329 183.413 118.59 184.673 120.737 185.904C122.311 186.757 123.826 187.716 125.27 188.774C126.115 189.421 127.336 189.825 128.217 190.421L128.01 179.674C127.989 178.705 127.974 177.711 128.265 176.786C128.829 174.99 130.439 173.72 131.212 172.011C131.563 171.242 131.734 170.404 132.028 169.616C132.443 168.604 132.96 167.637 133.569 166.728L137.548 160.346C138.531 158.771 139.512 157.197 140.579 155.679C145.247 149.031 151.532 143.705 157.645 138.362C157.503 136.839 157.855 135.311 158.649 134.004C158.963 133.568 159.222 133.097 159.423 132.6C159.552 132.01 159.59 131.405 159.534 130.804C159.534 130.651 159.534 130.504 159.534 130.343C159.6 129.364 160.01 128.44 160.691 127.732C161.393 127.005 162.331 126.562 163.255 126.149C168.034 124.015 173.003 122.333 178.096 121.126C178.909 120.934 179.769 120.755 180.57 120.997C180.813 121.779 181.64 122.054 182.468 122.251L182.998 122.374C184.404 122.677 185.714 123.316 186.818 124.236C187.978 125.248 188.776 126.601 189.552 127.933C195.39 137.94 198.079 151.069 207.11 158.34C207.548 158.684 207.458 159.373 207.23 159.852Z" fill="#6C63FF"/>
<path opacity="0.1" d="M244.058 36.9419C240.898 43.8776 234.67 50.7116 226.539 50.7116C225.875 50.712 225.212 50.679 224.551 50.6128C224.268 50.2411 223.953 49.8946 223.61 49.5771C222.245 48.3139 220.312 47.9876 218.971 46.883C219.787 45.4522 221.598 44.153 222.83 43.0604C224.161 41.885 225.542 40.7705 226.974 39.7168C229.834 37.6078 232.88 35.7613 236.073 34.1999C238.1 33.2091 240.217 32.323 242.454 32.0207C242.735 31.9573 243.03 31.9835 243.296 32.0955C243.644 32.2871 243.77 32.7181 243.854 33.1043C244.271 35.0201 243.71 34.9961 244.058 36.9419Z" fill="black"/>
<path d="M226.539 50.11C237.633 50.11 246.627 41.1306 246.627 30.054C246.627 18.9774 237.633 9.99805 226.539 9.99805C215.444 9.99805 206.451 18.9774 206.451 30.054C206.451 41.1306 215.444 50.11 226.539 50.11Z" fill="#FBBEBE"/>
<path d="M268.374 96.7565C268.047 99.1813 267.476 101.567 266.67 103.878C266.371 104.719 266.002 105.539 265.621 106.347C263.387 111.074 262.161 116.184 261.576 121.38C261.532 121.79 261.457 122.195 261.352 122.593C260.911 124.269 259.981 125.766 259.271 127.343C258.546 129.047 257.945 130.801 257.472 132.591C257.301 133.04 257.243 133.524 257.304 134.001C257.415 134.507 257.781 134.899 258.039 135.357C259.37 137.647 257.832 140.446 257.313 143.038C257.136 143.936 257.058 144.912 256.473 145.612C255.976 146.211 255.202 146.486 254.468 146.738C243.997 150.291 233.281 153.077 222.404 155.071C220.782 155.371 219.106 155.649 217.496 155.35C215.886 155.05 214.282 154.057 213.73 152.506C213.413 151.608 213.467 150.632 213.494 149.68C213.553 147.681 213.494 145.669 213.386 143.655C213.038 137.024 212.249 130.37 213.985 124.018C214.504 122.144 215.235 120.336 215.823 118.483C216.971 114.87 217.268 111.134 217.556 107.386C217.793 104.297 218.024 101.196 218.716 98.1484C219.232 95.8764 218.89 93.5146 218.86 91.1857C218.801 85.8563 220.37 80.6353 223.358 76.2186C223.876 75.4553 224.446 74.7009 224.719 73.8239C225.103 72.5666 224.839 71.2166 224.665 69.9115C224.227 66.5839 224.404 63.2043 225.187 59.9404C225.433 58.7191 225.901 57.5533 226.569 56.5009C227.315 55.4143 228.386 54.5941 229.456 53.8218C235.67 49.3491 242.527 45.8419 249.793 43.4196C250.462 45.1079 251.104 47.0806 251.616 48.8078C251.685 49.0413 251.733 49.3377 251.541 49.4873C251.349 49.637 251.152 49.5562 250.942 49.5622C250.725 49.5856 250.521 49.6739 250.355 49.8155C250.19 49.9571 250.071 50.1453 250.015 50.3554C249.91 50.7793 249.95 51.2261 250.129 51.6246C250.537 52.6723 251.415 53.4536 252.261 54.193L256.512 57.8959C257.021 58.3713 257.577 58.7945 258.17 59.1591C258.704 59.4584 259.286 59.671 259.834 59.9464C262.035 61.0569 263.555 63.2212 264.404 65.5321C265.252 67.843 264.869 70.6209 265.975 72.8151C269.651 80.0891 269.621 88.6952 268.374 96.7565Z" fill="#E8E8F0"/>
<path d="M265.579 172.867C266.871 178.066 266.839 183.504 265.486 188.688C265.243 189.613 264.959 190.57 265.15 191.507C265.261 192.04 265.522 192.54 265.582 193.082C265.608 193.576 265.555 194.071 265.423 194.549C264.092 200.835 264.569 207.367 265.105 213.781C264.878 213.781 264.806 213.886 264.566 213.886H258.788C258.686 212.201 256.587 210.938 255.562 209.594C254.57 208.276 253.884 206.755 253.554 205.14C253.223 203.525 253.257 201.857 253.652 200.257C254.552 196.665 257.202 193.794 258.56 190.361C260.059 186.583 259.93 182.306 261.523 178.57C262.437 176.412 264.146 174.726 265.579 172.867Z" fill="#3F3D56"/>
<path opacity="0.1" d="M265.579 172.867C266.871 178.066 266.839 183.504 265.486 188.688C265.243 189.613 264.959 190.57 265.15 191.507C265.261 192.04 265.522 192.54 265.582 193.082C265.608 193.576 265.555 194.071 265.423 194.549C264.092 200.835 264.569 207.367 265.105 213.781C264.878 213.781 264.806 213.886 264.566 213.886H258.788C258.686 212.201 256.587 210.938 255.562 209.594C254.57 208.276 253.884 206.755 253.554 205.14C253.223 203.525 253.257 201.857 253.652 200.257C254.552 196.665 257.202 193.794 258.56 190.361C260.059 186.583 259.93 182.306 261.523 178.57C262.437 176.412 264.146 174.726 265.579 172.867Z" fill="black"/>
<path d="M253.454 144.056C248.543 143.271 243.785 145.741 239.042 147.241C231.795 149.531 223.816 149.671 217.121 153.266C216.523 153.554 215.981 153.945 215.52 154.422C214.977 155.094 214.635 155.905 214.534 156.763C214.235 158.659 214.602 160.6 215.574 162.256C215.991 162.962 216.516 163.612 216.84 164.369C217.607 166.165 217.094 168.236 216.962 170.2C216.663 174.586 218.366 178.854 218.707 183.237C218.911 185.82 218.644 188.46 219.253 190.981C219.634 192.561 220.35 194.052 220.647 195.65C220.944 197.249 220.815 198.811 220.914 200.392C221.193 204.921 223.259 209.321 222.755 213.832L261.732 213.961C260.287 208.941 259.085 203.75 260.395 198.695C260.85 197.096 261.415 195.531 262.086 194.01C264.266 188.75 266.506 183.476 267.708 177.914C268.91 172.352 269.018 166.414 266.982 161.097C264.716 155.17 259.897 150.24 258.848 143.984C257.049 143.744 255.256 144.343 253.454 144.056Z" fill="#3F3D56"/>
<path d="M212.549 20.2715C212.171 19.4812 211.101 18.9603 210.381 19.4603C209.662 19.9602 209.755 21.0767 209.578 21.9747C209.236 23.7408 207.479 24.9442 205.68 25.2256C204.838 25.3603 203.899 25.3064 203.245 24.7616C202.825 24.3591 202.515 23.8549 202.346 23.2978C200.547 18.5083 201.641 12.9166 204.586 8.7378C205.21 7.8014 205.985 6.97412 206.879 6.28918C209.359 4.49312 212.675 4.49312 215.742 4.58891C216.365 4.65633 216.995 4.58371 217.586 4.37638C218.036 4.13969 218.449 3.83699 218.809 3.47835C221.715 0.927951 225.729 -0.143695 229.603 0.0269305C233.477 0.197556 237.204 1.52364 240.646 3.28677C242.292 4.12792 243.905 5.08283 245.194 6.41191C248.291 9.59392 249.047 14.3086 249.655 18.7029C250.309 23.4445 250.96 28.3178 249.859 32.9786C249.236 35.6188 248.06 38.1991 248.198 40.9081C245.708 41.6182 243.177 42.177 240.619 42.5815C239.419 42.7701 238.034 42.8808 237.156 42.0337C236.784 41.6361 236.513 41.1558 236.364 40.6327C235.414 37.8279 235.732 34.6249 234.295 32.0326C233.695 30.9757 232.837 30.0873 231.8 29.4499C230.764 28.8125 229.583 28.4468 228.368 28.3866C227.426 28.3537 226.356 28.5842 225.873 29.3894C225.688 29.7844 225.545 30.1978 225.448 30.6227C224.782 32.6253 222.056 33.6162 220.261 32.4996C219.361 31.9368 218.746 31.0029 217.934 30.3024C216.902 29.4194 215.58 28.9644 214.423 28.2519C210.567 25.8662 214.042 23.3996 212.549 20.2715Z" fill="#3F3D56"/>
<path d="M182.48 122.254C180.84 122.778 179.346 123.727 177.751 124.395C174.942 125.565 171.854 125.838 168.906 126.586C166.075 127.344 163.346 128.442 160.778 129.855C160.589 129.957 159.996 130.453 159.522 130.795C159.522 130.642 159.522 130.495 159.522 130.334C159.588 129.355 159.998 128.431 160.679 127.723C161.381 126.996 162.319 126.553 163.243 126.14C168.026 124.009 172.999 122.33 178.096 121.126C178.909 120.934 179.769 120.755 180.57 120.997C180.825 121.779 181.652 122.054 182.48 122.254Z" fill="#3F3D56"/>
<path opacity="0.1" d="M139.973 199.021C143.2 202.613 146.093 206.534 149.847 209.564C145.514 203.819 139.299 199.985 133.68 195.653C132.541 194.773 130.262 193.525 129.572 192.253C128.484 190.259 130.889 191.675 131.887 192.217C135.005 193.908 137.62 196.405 139.973 199.021Z" fill="black"/>
<path opacity="0.1" d="M256.051 94.1672C255.898 95.4603 255.415 96.6876 254.926 97.891C253.727 100.884 252.441 103.848 250.63 106.503C249.383 108.332 247.898 109.984 246.597 111.772C245.261 113.668 244.036 115.64 242.927 117.678C240.883 121.294 238.89 124.94 236.949 128.616C236.022 130.376 235.102 132.151 233.906 133.74C233.066 134.813 232.165 135.837 231.207 136.806C229.108 139.015 226.953 141.056 225.076 143.451C224.146 144.648 222.596 145.109 221.148 145.516C220.664 145.677 220.159 145.768 219.649 145.786C219.135 145.75 218.63 145.638 218.15 145.454C216.532 144.961 214.95 144.361 213.413 143.657C213.065 137.027 212.276 130.373 214.012 124.021C214.531 122.147 215.262 120.339 215.85 118.486C216.998 114.873 217.295 111.137 217.583 107.389C217.94 106.638 218.321 105.892 218.689 105.168C221.19 100.235 223.298 94.8018 222.647 89.3029C222.481 88.3115 222.366 87.3124 222.302 86.3094C222.309 85.0797 222.516 83.8592 222.917 82.6964C223.814 79.9499 225.298 77.4303 227.265 75.3115C229.232 73.1927 231.635 71.525 234.31 70.4233C235.155 70.0292 236.076 69.8248 237.009 69.8246C238.208 69.8875 239.356 70.5101 240.526 70.2826C244.486 72.0218 247.692 74.9913 250.087 78.5894C252.483 82.1875 252.615 86.9949 255.22 90.4434C255.991 91.4911 256.201 92.877 256.051 94.1672Z" fill="black"/>
<path d="M169.359 77.9218L169.233 77.6494L164.334 79.9065L163.516 80.2837L162.7 80.6578L169.608 95.61L170.424 95.2328L171.242 94.8557L176.141 92.5986L176.015 92.3292L171.116 94.5863L170.99 94.3139L175.889 92.0568L175.763 91.7844L170.864 94.0414L170.738 93.769L175.638 91.512L175.515 91.2396L170.613 93.4966L170.487 93.2272L175.389 90.9702L175.263 90.6978L170.361 92.9548L170.235 92.6824L175.137 90.4254L175.011 90.153L170.112 92.41L169.986 92.1376L174.885 89.8806L174.759 89.6112L169.86 91.8682L169.734 91.5958L174.633 89.3388L174.507 89.0664L169.608 91.3234L169.482 91.051L174.384 88.794L174.258 88.5216L169.356 90.7786L169.23 90.5092L174.132 88.2492L174.007 87.9798L169.104 90.2368L168.981 89.9644L173.881 87.7074L173.755 87.435L168.856 89.692L168.73 89.4196L173.629 87.1626L173.503 86.8901L168.604 89.1472L168.478 88.8778L173.377 86.6207L173.254 86.3483L168.352 88.6054L168.226 88.333L173.128 86.0759L173.002 85.8035L168.1 88.0606L167.977 87.7882L172.876 85.5341L172.75 85.2617L167.851 87.5188L167.725 87.2464L172.624 84.9893L172.498 84.7169L167.599 86.974L167.473 86.7016L172.372 84.4445L172.25 84.1721L167.347 86.4322L167.221 86.1598L172.124 83.9027L171.998 83.6303L167.096 85.8874L166.97 85.615L171.872 83.3579L171.746 83.0855L166.847 85.3426L166.721 85.0702L171.62 82.8131L171.494 82.5437L166.595 84.8007L166.469 84.5283L171.368 82.2713L171.242 81.9989L166.343 84.2559L166.217 83.9835L171.119 81.7265L170.993 81.4571L166.091 83.7111L165.965 83.4417L170.867 81.1847L170.741 80.9123L165.839 83.1693L165.716 82.8969L170.616 80.6399L170.49 80.3675L165.59 82.6245L165.465 82.3521L170.364 80.0951L170.238 79.8257L165.339 82.0827L165.213 81.8103L170.112 79.5533L169.989 79.2809L165.087 81.5379L164.961 81.2655L169.863 79.0085L169.737 78.7361L164.835 80.9931L164.709 80.7237L169.611 78.4667L169.485 78.1943L164.583 80.4513L164.46 80.1789L169.359 77.9218Z" fill="black"/>
<path opacity="0.1" d="M184.74 110.808C184.108 111.876 183.139 112.804 181.937 113.119C180.438 113.505 178.693 112.756 178.039 111.355C177.637 110.487 177.655 109.494 177.634 108.539C177.601 106.669 177.401 104.805 177.035 102.971C176.849 102.052 176.6 101.097 175.973 100.402C175.164 99.5044 173.875 99.2051 172.675 99.1841C171.272 99.1662 169.734 99.5463 168.915 100.681C168.259 101.597 168.145 102.884 167.272 103.599C166.885 103.896 166.424 104.084 165.938 104.141C164.948 104.264 163.946 104.053 163.091 103.54C162.236 103.027 161.578 102.243 161.222 101.312C160.946 100.522 160.811 99.5404 160.062 99.1692C159.672 98.9746 159.207 99.0105 158.79 98.8848C157.513 98.4986 157.177 96.8822 157.06 95.5561C156.925 94.0025 157.444 90.9343 155.51 90.8295C153.441 90.7157 151.04 91.9161 149.124 92.5537C147.895 93.0476 146.45 93.6164 145.319 92.9249C144.489 92.413 144.147 91.3504 144.198 90.3775C144.249 89.4046 144.621 88.4826 144.914 87.5547C145.418 85.9861 145.721 84.3577 146.183 82.7652C145.966 83.2157 145.772 83.6773 145.604 84.1482C144.938 86.037 144.627 88.0396 144.015 89.9375C143.715 90.8654 143.349 91.7874 143.298 92.7603C143.247 93.7331 143.598 94.7958 144.42 95.3077C145.55 95.9991 146.995 95.4304 148.225 94.9365C150.14 94.2989 152.542 93.0985 154.611 93.2123C156.545 93.317 156.026 96.3853 156.161 97.9389C156.278 99.265 156.614 100.881 157.891 101.268C158.308 101.393 158.772 101.357 159.162 101.552C159.912 101.923 160.062 102.905 160.322 103.695C160.678 104.626 161.336 105.41 162.191 105.923C163.046 106.435 164.049 106.647 165.039 106.524C165.524 106.466 165.985 106.279 166.373 105.982C167.245 105.267 167.359 103.98 168.016 103.064C168.835 101.923 170.373 101.543 171.776 101.567C172.975 101.585 174.279 101.884 175.074 102.785C175.701 103.48 175.949 104.435 176.135 105.354C176.501 107.188 176.702 109.051 176.735 110.921C176.756 111.876 176.735 112.87 177.14 113.738C177.79 115.139 179.538 115.887 181.037 115.501C182.237 115.187 183.208 114.259 183.841 113.19C184.322 112.318 184.693 111.389 184.944 110.424C184.878 110.562 184.812 110.685 184.74 110.808Z" fill="black"/>
<path d="M200.163 108.82C197.765 106.521 195.597 103.977 193.444 101.438C191.381 99.0105 189.313 96.5709 187.652 93.8559C186.623 92.1766 185.706 90.3446 184.126 89.1682C182.926 88.2701 181.46 87.8511 180.135 87.1656C179.182 86.6716 178.303 86.046 177.362 85.5341C175.308 84.4259 172.997 83.8815 170.663 83.9566C169.695 83.9895 168.595 84.214 168.097 85.0462C167.926 85.3306 167.845 85.6629 167.671 85.9442C167.135 86.8423 165.842 87.0967 165.402 88.0396C164.658 89.6262 166.901 91.084 167.042 92.8291C167.108 93.7032 166.625 94.5174 166.484 95.3825C166.244 96.8792 167.021 98.3071 167.77 99.6122C169.374 102.408 171.326 105.47 174.477 106.174C175.593 106.422 176.771 106.341 177.859 106.695C178.736 107.027 179.548 107.51 180.258 108.123C183.219 110.452 185.828 113.195 188.005 116.268C189.019 117.696 189.936 119.186 190.959 120.605C194.213 125.1 198.483 128.766 203.422 131.304L207.101 119.629C207.668 117.833 208.115 115.37 206.502 113.969C204.481 112.152 202.151 110.718 200.163 108.82Z" fill="#FBBEBE"/>
<path d="M240.211 68.7979C239.042 69.0224 237.881 68.4028 236.694 68.3399C235.761 68.3395 234.84 68.5439 233.996 68.9386C231.321 70.0409 228.918 71.7089 226.951 73.8276C224.984 75.9463 223.5 78.4655 222.602 81.2116C222.205 82.3793 222.001 83.6036 221.997 84.8367C222.015 85.8395 222.224 86.8273 222.341 87.8301C222.992 93.32 220.884 98.7561 218.387 103.695C217.004 106.422 215.445 109.299 215.772 112.337C215.814 112.744 215.88 113.202 215.631 113.535C215.331 113.93 214.684 113.951 214.405 114.367C214.126 114.783 214.381 115.412 214.159 115.881C213.859 116.546 212.882 116.465 212.183 116.229C210.268 115.582 208.495 114.576 206.957 113.265C204.466 114.717 201.8 116.447 200.982 119.207C200.79 119.911 200.656 120.63 200.583 121.356L199.297 132.073C199.126 133.492 199.042 135.156 200.115 136.102C201.965 137.736 205.26 135.62 207.239 137.099C207.746 137.476 208.076 138.039 208.438 138.551C210.6 141.511 214.321 142.813 217.811 143.939C218.292 144.121 218.797 144.232 219.31 144.268C219.821 144.254 220.326 144.163 220.809 143.999C222.26 143.592 223.807 143.119 224.737 141.936C226.617 139.542 228.773 137.5 230.871 135.291C231.828 134.32 232.729 133.297 233.57 132.226C234.769 130.633 235.687 128.858 236.613 127.098C238.55 123.422 240.541 119.776 242.586 116.16C243.706 114.131 244.942 112.168 246.288 110.281C247.593 108.485 249.074 106.838 250.321 105.012C252.12 102.354 253.412 99.3787 254.618 96.4003C255.106 95.2029 255.589 93.9666 255.745 92.6764C255.901 91.3863 255.691 90.0003 254.905 88.9616C252.3 85.5102 252.171 80.7057 249.775 77.1076C247.38 73.5095 244.175 70.5341 240.211 68.7979Z" fill="#E8E8F0"/>
<path d="M169.44 79.1492C169.37 79.1936 169.311 79.2528 169.266 79.3226C169.222 79.3925 169.193 79.4712 169.182 79.5533C169.182 79.703 169.305 79.8197 169.371 79.9544C169.554 80.3376 169.26 80.7806 168.924 81.044C168.589 81.3074 168.181 81.511 167.998 81.8971C167.97 81.9483 167.957 82.0066 167.962 82.0648C167.982 82.1436 168.029 82.2133 168.094 82.2623C168.291 82.489 168.548 82.6568 168.834 82.7473C169.293 82.8431 169.734 82.5407 170.124 82.2923C170.547 82.0253 170.997 81.8045 171.467 81.6337C171.612 81.5908 171.749 81.5229 171.872 81.4332C172.022 81.284 172.114 81.0868 172.133 80.8764C172.234 80.125 171.833 79.4036 171.374 78.781C170.822 78.0476 169.911 78.7451 169.44 79.1492Z" fill="#3F3D56"/>
<path d="M123.441 167.86L92.3187 152.001C92.0916 151.885 91.8135 151.975 91.6976 152.202L83.766 167.716C83.6501 167.943 83.7402 168.221 83.9674 168.336L115.089 184.196C115.317 184.311 115.595 184.221 115.711 183.995L123.642 168.48C123.758 168.253 123.668 167.976 123.441 167.86Z" fill="#3F3D56"/>
<path d="M120.576 168.259L93.7263 154.577L86.9138 167.902L113.763 181.584L120.576 168.259Z" fill="#E8E8F0"/>
<path d="M89.7294 160.943C89.8115 160.783 89.6807 160.552 89.4374 160.428C89.194 160.304 88.9302 160.334 88.8482 160.494C88.7661 160.655 88.8969 160.885 89.1402 161.009C89.3836 161.133 89.6474 161.104 89.7294 160.943Z" fill="#E6E8EC"/>
<path d="M119.091 175.944C119.226 175.681 119.01 175.301 118.608 175.097C118.207 174.892 117.773 174.94 117.638 175.204C117.503 175.467 117.719 175.847 118.12 176.051C118.522 176.256 118.956 176.208 119.091 175.944Z" fill="#E6E8EC"/>
<g opacity="0.1">
<path opacity="0.1" d="M249.853 30.8712C249.23 33.5114 248.054 36.0917 248.192 38.8008C245.702 39.5108 243.171 40.0696 240.613 40.4741C239.413 40.6627 238.028 40.7734 237.15 39.9263C236.778 39.5287 236.507 39.0485 236.358 38.5254C235.408 35.7205 235.726 32.5176 234.289 29.9253C233.689 28.8683 232.831 27.9799 231.794 27.3425C230.758 26.7051 229.577 26.3394 228.362 26.2793C227.42 26.2463 226.35 26.4768 225.867 27.2821C225.682 27.677 225.54 28.0904 225.442 28.5154C224.776 30.518 222.051 31.5088 220.255 30.3922C219.355 29.8295 218.74 28.8955 217.928 28.1951C216.897 27.312 215.574 26.857 214.417 26.1446C213.374 25.504 212.873 24.8574 212.66 24.1898C212.396 25.6297 212.321 26.9528 214.417 28.24C215.574 28.9524 216.897 29.4074 217.928 30.2905C218.74 30.9849 219.343 31.9249 220.255 32.4876C222.054 33.5982 224.776 32.6134 225.442 30.6108C225.54 30.1858 225.682 29.7724 225.867 29.3775C226.35 28.5722 227.42 28.3417 228.362 28.3747C229.577 28.4348 230.758 28.8005 231.794 29.4379C232.831 30.0753 233.689 30.9637 234.289 32.0207C235.726 34.613 235.408 37.8159 236.358 40.6208C236.509 41.1482 236.785 41.6317 237.162 42.0307C238.04 42.8688 239.428 42.767 240.625 42.5785C243.183 42.174 245.714 41.6152 248.204 40.9051C248.057 38.1961 249.242 35.6158 249.865 32.9756C250.346 30.8151 250.538 28.6008 250.438 26.39C250.39 27.8992 250.194 29.4001 249.853 30.8712Z" fill="black"/>
<path opacity="0.1" d="M212.84 21.1096C213.059 20.1251 212.954 19.0961 212.54 18.1761C212.162 17.3858 211.092 16.8649 210.372 17.3648C209.653 17.8647 209.755 18.9813 209.578 19.8793C209.236 21.6454 207.479 22.8488 205.68 23.1302C204.838 23.2649 203.899 23.211 203.245 22.6662C202.825 22.2637 202.515 21.7595 202.346 21.2024C201.885 19.9574 201.606 18.653 201.515 17.3289C201.363 19.3549 201.646 21.39 202.346 23.2978C202.515 23.8549 202.825 24.3591 203.245 24.7616C203.899 25.3064 204.838 25.3603 205.68 25.2256C207.458 24.9442 209.224 23.7289 209.578 21.9747C209.749 21.0767 209.632 19.9901 210.375 19.4752C211.119 18.9603 212.174 19.4962 212.543 20.2864C212.671 20.5493 212.771 20.8253 212.84 21.1096Z" fill="black"/>
</g>
</g>
<defs>
<clipPath id="clip0_19_1012">
<rect width="343" height="214" fill="white"/>
</clipPath>
</defs>
</svg>
