<svg width="32" height="32" viewBox="0 0 32 32" fill="none" xmlns="http://www.w3.org/2000/svg">
<path d="M0 5C0 2.23858 2.23858 0 5 0H27C29.7614 0 32 2.23858 32 5V27C32 29.7614 29.7614 32 27 32H5C2.23858 32 0 29.7614 0 27V5Z" fill="#FFF1F0"/>
<path fill-rule="evenodd" clip-rule="evenodd" d="M15 7H17V17H15V7ZM20.41 10.59L21.83 9.17C23.77 10.82 25 13.26 25 16C25 20.97 20.97 25 16 25C11.03 25 7 20.97 7 16C7 13.26 8.23 10.82 10.17 9.17L11.58 10.58C10.01 11.86 9 13.81 9 16C9 19.87 12.13 23 16 23C19.87 23 23 19.87 23 16C23 13.81 21.99 11.86 20.41 10.59Z" fill="#F9372A"/>
</svg>
