<svg width="32" height="32" viewBox="0 0 32 32" fill="none" xmlns="http://www.w3.org/2000/svg">
<path d="M0 5C0 2.23858 2.23858 0 5 0H27C29.7614 0 32 2.23858 32 5V27C32 29.7614 29.7614 32 27 32H5C2.23858 32 0 29.7614 0 27V5Z" fill="#F3F2FF"/>
<path fill-rule="evenodd" clip-rule="evenodd" d="M22 19.75V14.75C22 11.68 20.37 9.11 17.5 8.43V7.75C17.5 6.92 16.83 6.25 16 6.25C15.17 6.25 14.5 6.92 14.5 7.75V8.43C11.64 9.11 10 11.67 10 14.75V19.75L8 21.75V22.75H24V21.75L22 19.75ZM16 25.75C17.1 25.75 18 24.85 18 23.75H14C14 24.85 14.9 25.75 16 25.75ZM12 20.75H20V14.75C20 12.27 18.49 10.25 16 10.25C13.51 10.25 12 12.27 12 14.75V20.75Z" fill="#5648F5"/>
</svg>
