<svg width="32" height="32" viewBox="0 0 32 32" fill="none" xmlns="http://www.w3.org/2000/svg">
<path d="M0 5C0 2.23858 2.23858 0 5 0H27C29.7614 0 32 2.23858 32 5V27C32 29.7614 29.7614 32 27 32H5C2.23858 32 0 29.7614 0 27V5Z" fill="#F3F2FF"/>
<path fill-rule="evenodd" clip-rule="evenodd" d="M20.04 20.89C20.56 20.42 21.24 20.12 22 20.12C23.61 20.12 24.92 21.43 24.92 23.04C24.92 24.65 23.61 25.96 22 25.96C20.39 25.96 19.08 24.65 19.08 23.04C19.08 22.82 19.11 22.6 19.16 22.39L12.04 18.23C11.5 18.73 10.79 19.04 10 19.04C8.34 19.04 7 17.7 7 16.04C7 14.38 8.34 13.04 10 13.04C10.79 13.04 11.5 13.35 12.04 13.85L19.09 9.73998C19.04 9.50998 19 9.27998 19 9.03998C19 7.37998 20.34 6.03998 22 6.03998C23.66 6.03998 25 7.37998 25 9.03998C25 10.7 23.66 12.04 22 12.04C21.21 12.04 20.5 11.73 19.96 11.23L12.91 15.34C12.96 15.57 13 15.8 13 16.04C13 16.28 12.96 16.51 12.91 16.74L20.04 20.89ZM23 9.03998C23 8.48998 22.55 8.03998 22 8.03998C21.45 8.03998 21 8.48998 21 9.03998C21 9.58998 21.45 10.04 22 10.04C22.55 10.04 23 9.58998 23 9.03998ZM10 17.04C9.45 17.04 9 16.59 9 16.04C9 15.49 9.45 15.04 10 15.04C10.55 15.04 11 15.49 11 16.04C11 16.59 10.55 17.04 10 17.04ZM21 23.06C21 23.61 21.45 24.06 22 24.06C22.55 24.06 23 23.61 23 23.06C23 22.51 22.55 22.06 22 22.06C21.45 22.06 21 22.51 21 23.06Z" fill="#5648F5"/>
</svg>
