<svg width="32" height="32" viewBox="0 0 32 32" fill="none" xmlns="http://www.w3.org/2000/svg">
<path d="M0 5C0 2.23858 2.23858 0 5 0H27C29.7614 0 32 2.23858 32 5V27C32 29.7614 29.7614 32 27 32H5C2.23858 32 0 29.7614 0 27V5Z" fill="#F3F2FF"/>
<path fill-rule="evenodd" clip-rule="evenodd" d="M16 6C10.48 6 6 10.48 6 16C6 21.52 10.48 26 16 26C21.52 26 26 21.52 26 16C26 10.48 21.52 6 16 6ZM11.07 22.28C11.5 21.38 14.12 20.5 16 20.5C17.88 20.5 20.51 21.38 20.93 22.28C19.57 23.36 17.86 24 16 24C14.14 24 12.43 23.36 11.07 22.28ZM16 18.5C17.46 18.5 20.93 19.09 22.36 20.83C23.38 19.49 24 17.82 24 16C24 11.59 20.41 8 16 8C11.59 8 8 11.59 8 16C8 17.82 8.62 19.49 9.64 20.83C11.07 19.09 14.54 18.5 16 18.5ZM16 10C14.06 10 12.5 11.56 12.5 13.5C12.5 15.44 14.06 17 16 17C17.94 17 19.5 15.44 19.5 13.5C19.5 11.56 17.94 10 16 10ZM14.5 13.5C14.5 14.33 15.17 15 16 15C16.83 15 17.5 14.33 17.5 13.5C17.5 12.67 16.83 12 16 12C15.17 12 14.5 12.67 14.5 13.5Z" fill="#5648F5"/>
</svg>
